<svg xmlns="http://www.w3.org/2000/svg" version="1.1" xmlns:xlink="http://www.w3.org/1999/xlink" xmlns:svgjs="http://svgjs.dev/svgjs" width="2000" height="440" viewBox="0 0 2000 440"><g transform="matrix(1,0,0,1,0.19257815752166607,-1.7729853110623424)"><svg viewBox="0 0 259 57" data-background-color="#f9f9f9" preserveAspectRatio="xMidYMid meet" height="440" width="2000" xmlns="http://www.w3.org/2000/svg" xmlns:xlink="http://www.w3.org/1999/xlink"><g id="tight-bounds" transform="matrix(1,0,0,1,-0.02493887139905837,0.2296821880239861)"><svg viewBox="0 0 259.0498777427981 56.54063562395203" height="56.54063562395203" width="259.0498777427981"><g><svg viewBox="0 0 259.0498777427981 56.54063562395203" height="56.54063562395203" width="259.0498777427981"><g><svg viewBox="0 0 259.0498777427981 56.54063562395203" height="56.54063562395203" width="259.0498777427981"><g id="textblocktransform"><svg viewBox="0 0 259.0498777427981 56.54063562395203" height="56.54063562395203" width="259.0498777427981" id="textblock"><g><svg viewBox="0 0 259.0498777427981 56.54063562395203" height="56.54063562395203" width="259.0498777427981"><g><svg><g></g><g></g></svg></g><g><svg><g></g><g><svg></svg></g></svg></g><g id="text-0"><svg viewBox="0 0 259.0498777427981 56.54063562395203" height="56.54063562395203" width="259.0498777427981"><g><svg xmlns="http://www.w3.org/2000/svg" xmlns:xlink="http://www.w3.org/1999/xlink" version="1.1" x="0" y="0" viewBox="9.308958408242617 78.32652013637488 267.50216414027835 116.96447986362512" enable-background="new 0 0 283.46 283.46" xml:space="preserve" height="56.54063562395203" width="129.31055999999998" class="icon-cg-0" data-fill-palette-color="accent" id="cg-0"><path fill="#1f83cb" d="M249.14 151.042c-0.58 0-1.129-0.338-1.369-0.903-0.32-0.757 0.033-1.627 0.789-1.95 0.752-0.322 1.627 0.03 1.949 0.786 0.32 0.757-0.033 1.628-0.785 1.948C249.531 151.005 249.333 151.042 249.14 151.042zM247.939 142.361c0.68-0.467 0.85-1.393 0.381-2.068-0.461-0.677-1.389-0.85-2.064-0.383-0.68 0.468-0.85 1.389-0.381 2.068 0.287 0.417 0.752 0.643 1.224 0.643 0.291 0 0.586-0.086 0.846-0.26H247.939zM254.455 148.375c0.252 0 0.512-0.062 0.744-0.198 0.711-0.412 0.953-1.321 0.539-2.03-0.412-0.714-1.32-0.956-2.031-0.544-0.709 0.412-0.951 1.321-0.543 2.035C253.441 148.113 253.941 148.375 254.455 148.375zM259.421 145.109c0.307 0 0.615-0.093 0.883-0.288 0.658-0.487 0.799-1.423 0.311-2.081-0.488-0.659-1.42-0.8-2.08-0.311-0.66 0.488-0.799 1.419-0.311 2.082C258.517 144.902 258.968 145.109 259.421 145.109zM194.613 160.24c0.332 0 0.646-0.193 0.783-0.519l0.99-2.349c0.184-0.434-0.018-0.932-0.451-1.112-0.43-0.185-0.93 0.02-1.113 0.45l-0.99 2.35c-0.184 0.434 0.019 0.931 0.451 1.111C194.392 160.218 194.503 160.24 194.613 160.24zM198.91 149.216c0.107 0.045 0.219 0.065 0.33 0.065 0.332 0 0.646-0.194 0.783-0.519l0.992-2.348c0.182-0.434-0.02-0.932-0.451-1.113-0.434-0.184-0.93 0.02-1.115 0.451l-0.992 2.349C198.277 148.537 198.478 149.035 198.91 149.216zM196.597 154.695c0.107 0.047 0.219 0.067 0.33 0.067 0.33 0 0.645-0.195 0.783-0.521l0.99-2.348c0.182-0.434-0.021-0.932-0.451-1.114-0.435-0.182-0.933 0.021-1.115 0.453l-0.99 2.349C195.96 154.014 196.166 154.513 196.597 154.695zM142.323 147.484c0.229 0.168 0.484 0.26 0.746 0.283 0.502 0.045 1.014-0.162 1.333-0.6 0.486-0.66 0.343-1.596-0.315-2.08-0.66-0.486-1.596-0.346-2.082 0.314C141.52 146.068 141.662 146.998 142.323 147.484zM137.291 154.326c0.223 0.17 0.483 0.26 0.745 0.285 0.5 0.045 1.01-0.166 1.331-0.6 0.485-0.662 0.347-1.592-0.315-2.078-0.662-0.49-1.59-0.35-2.082 0.316C136.482 152.908 136.626 153.841 137.291 154.326zM152.391 133.796c0.229 0.17 0.489 0.261 0.747 0.284 0.504 0.045 1.012-0.165 1.331-0.601 0.485-0.66 0.349-1.589-0.315-2.081-0.66-0.485-1.591-0.342-2.079 0.317C151.587 132.382 151.73 133.311 152.391 133.796zM147.358 140.642c0.225 0.166 0.485 0.257 0.748 0.28 0.497 0.044 1.013-0.164 1.333-0.596 0.485-0.665 0.344-1.594-0.321-2.081-0.662-0.485-1.591-0.344-2.077 0.317C146.556 139.223 146.697 140.152 147.358 140.642zM132.254 161.171c0.229 0.166 0.484 0.256 0.746 0.279 0.5 0.045 1.013-0.164 1.334-0.596 0.485-0.664 0.343-1.596-0.318-2.082-0.665-0.484-1.594-0.344-2.079 0.316C131.451 159.751 131.594 160.683 132.254 161.171zM84.018 133.418c0.111 0 0.225-0.021 0.334-0.069 0.794-0.341 1.576-0.685 2.347-1.029 0.429-0.191 0.621-0.694 0.429-1.123-0.192-0.428-0.694-0.62-1.123-0.428-0.763 0.342-1.538 0.683-2.323 1.02-0.431 0.185-0.63 0.685-0.446 1.115C83.375 133.226 83.688 133.418 84.018 133.418zM78.508 135.664c0.101 0 0.205-0.019 0.305-0.057 0.804-0.311 1.599-0.625 2.384-0.942 0.435-0.176 0.645-0.671 0.469-1.107-0.176-0.435-0.672-0.644-1.106-0.468-0.777 0.313-1.563 0.625-2.359 0.932-0.438 0.17-0.656 0.661-0.486 1.099C77.845 135.457 78.167 135.664 78.508 135.664zM72.917 137.699c0.091 0 0.184-0.016 0.275-0.046 0.814-0.279 1.621-0.563 2.419-0.851 0.441-0.159 0.67-0.646 0.51-1.087-0.16-0.441-0.647-0.67-1.087-0.511-0.79 0.284-1.587 0.564-2.392 0.84-0.444 0.152-0.682 0.635-0.529 1.079C72.234 137.476 72.563 137.699 72.917 137.699zM67.251 139.511c0.081 0 0.162-0.011 0.243-0.035 0.824-0.245 1.641-0.497 2.451-0.754 0.447-0.143 0.694-0.619 0.553-1.065-0.142-0.448-0.62-0.696-1.067-0.554-0.8 0.254-1.608 0.502-2.423 0.745-0.449 0.134-0.706 0.606-0.571 1.057C66.547 139.273 66.885 139.511 67.251 139.511zM89.441 130.973c0.122 0 0.245-0.026 0.362-0.081 0.784-0.372 1.554-0.742 2.309-1.114 0.421-0.207 0.595-0.715 0.388-1.137-0.208-0.421-0.716-0.596-1.137-0.388-0.748 0.367-1.51 0.735-2.285 1.102-0.425 0.2-0.606 0.707-0.406 1.131C88.818 130.793 89.123 130.973 89.441 130.973zM55.72 142.421c0.057 0 0.115-0.006 0.173-0.018 0.841-0.174 1.677-0.354 2.507-0.543 0.458-0.104 0.745-0.559 0.641-1.016-0.104-0.458-0.561-0.746-1.016-0.641-0.82 0.185-1.646 0.363-2.476 0.535-0.46 0.096-0.756 0.546-0.66 1.006C54.972 142.146 55.326 142.421 55.72 142.421zM61.517 141.09c0.069 0 0.139-0.009 0.208-0.026 0.833-0.21 1.661-0.427 2.481-0.65 0.453-0.124 0.72-0.59 0.597-1.043-0.124-0.452-0.589-0.72-1.043-0.596-0.811 0.22-1.627 0.435-2.451 0.642-0.455 0.115-0.73 0.577-0.615 1.031C60.791 140.834 61.137 141.09 61.517 141.09zM105.151 122.506c0.151 0 0.303-0.04 0.441-0.125 0.759-0.462 1.486-0.914 2.18-1.353 0.396-0.25 0.515-0.775 0.264-1.171s-0.776-0.515-1.172-0.265c-0.686 0.434-1.405 0.88-2.156 1.338-0.4 0.244-0.527 0.766-0.283 1.167C104.585 122.36 104.865 122.506 105.151 122.506zM110.176 119.311c0.161 0 0.324-0.045 0.468-0.141 0.769-0.509 1.479-0.991 2.128-1.438 0.386-0.267 0.483-0.795 0.217-1.182-0.267-0.387-0.796-0.484-1.182-0.217-0.64 0.441-1.342 0.917-2.101 1.42-0.392 0.259-0.499 0.787-0.239 1.178C109.63 119.178 109.9 119.311 110.176 119.311zM102.574 92.172c0.107 0.044 0.219 0.065 0.328 0.065 0.332 0 0.647-0.196 0.784-0.521 0.312-0.746 0.683-1.575 1.101-2.467 0.199-0.425 0.016-0.931-0.409-1.13-0.425-0.199-0.931-0.016-1.13 0.408-0.428 0.913-0.808 1.765-1.129 2.532C101.938 91.493 102.142 91.991 102.574 92.172zM101.224 98.373c0.014 0.001 0.028 0.001 0.043 0.001 0.45 0 0.825-0.353 0.848-0.807 0.038-0.758 0.17-1.587 0.404-2.536 0.112-0.456-0.166-0.916-0.622-1.028-0.456-0.114-0.916 0.166-1.028 0.622-0.26 1.055-0.408 1.99-0.451 2.857C100.395 97.951 100.756 98.35 101.224 98.373zM94.775 128.335c0.131 0 0.265-0.031 0.389-0.096 0.773-0.398 1.529-0.797 2.269-1.192 0.414-0.222 0.569-0.737 0.348-1.15-0.222-0.414-0.737-0.57-1.15-0.348-0.731 0.392-1.48 0.787-2.246 1.182-0.417 0.215-0.58 0.728-0.365 1.144C94.17 128.167 94.467 128.335 94.775 128.335zM100.015 125.512c0.141 0 0.284-0.036 0.416-0.109 0.764-0.429 1.506-0.854 2.225-1.272 0.405-0.236 0.543-0.756 0.307-1.162-0.236-0.406-0.756-0.543-1.162-0.307-0.712 0.414-1.447 0.835-2.203 1.26-0.409 0.23-0.555 0.747-0.325 1.157C99.429 125.356 99.717 125.512 100.015 125.512zM276.267 167.542l-0.027 0.188c-0.258 1.681-0.857 5.618-7.219 9.79-6.752 4.43-18.668 8.252-35.418 11.359-31.186 5.785-84.732 6.412-121.371 6.412-5.569 0-10.745-0.016-15.396-0.028-3.838-0.011-7.327-0.021-10.391-0.021-31.257 0-61.637-2.459-67.722-3.508-8.549-1.474-8.549-8.79-8.549-14.132v-12.215c0-0.673 0.209-1.294 0.564-1.808-1.13-6.608-2.779-21.285 0.506-39.277 3.262-17.863 5.409-23.227 9.57-23.918 1.581-0.261 3.892 0.184 5.913 3.8 0.199 0.356 0.349 0.735 0.575 1.31 6.967 17.666 24.046 15.655 29.658 14.995 18.695-2.199 26.799-5.107 34.761-9.427-4.228-5.636-5.201-12.523-2.792-20.148 2.048-6.487 5.88-11.22 6.042-11.418 0.904-1.105 2.432-1.474 3.741-0.904l28.16 12.283c0.09-0.924 0.58-1.801 1.415-2.353 1.469-0.97 3.445-0.564 4.415 0.903l3.701 5.607 10.366 4.522c1.52 0.514 3.348 1.137 5.422 1.845 0.088-1.426 1.129-2.663 2.598-2.935 1.729-0.319 3.394 0.824 3.711 2.554l0.5 2.712c2.004 0.688 4.119 1.415 6.314 2.17-0.186-1.674 0.965-3.219 2.646-3.496 1.735-0.284 3.375 0.892 3.662 2.627l0.528 3.223c2.117 0.731 4.272 1.474 6.44 2.224-0.135-1.612 0.974-3.093 2.597-3.393 1.728-0.322 3.394 0.824 3.713 2.554l0.597 3.227c2.092 0.725 4.17 1.444 6.205 2.151 0.104-1.427 1.161-2.657 2.637-2.91 1.731-0.297 3.381 0.867 3.678 2.601l0.461 2.663c2.209 0.77 4.332 1.509 6.328 2.207-0.01-1.535 1.09-2.895 2.65-3.159 1.735-0.294 3.379 0.874 3.674 2.607l0.498 2.942c2.584 0.91 4.733 1.671 6.309 2.238 0.16-1.329 1.152-2.466 2.539-2.742 1.725-0.344 3.404 0.774 3.748 2.499l0.58 2.913c1.531 0.642 3.104 1.354 4.688 2.188 0.217 0.022 0.445 0.046 0.687 0.074 20.307 2.323 33.278 5.769 38.6 9.919C275.888 144.609 277.927 157.589 276.267 167.542zM239.544 136.862c3.684 4.227 6.805 10.063 8.645 18.435 11.209-3.063 16.588-6.066 19.168-8.248-0.707-1.2-1.539-2.215-2.502-2.965C261.474 141.446 252.462 138.9 239.544 136.862zM112.673 105.81c-0.178 0.125-0.361 0.253-0.545 0.382 2.465 1.241 5.51 2.463 9.109 3.65 10.517 3.468 33.597 10.663 55.919 17.621 18.391 5.734 35.766 11.15 43.014 13.523 5.72 1.875 9.484 3.587 12.367 7.837 0.152-0.428 0.613-0.663 1.051-0.528l2.435 0.756c0.449 0.138 0.697 0.613 0.562 1.062-0.113 0.364-0.449 0.599-0.812 0.599-0.082 0-0.17-0.013-0.25-0.039l-2.264-0.7c1.209 2.073 2.264 4.684 3.256 8.065 1.941-0.394 3.77-0.789 5.49-1.188-0.353-1.622-0.75-3.135-1.199-4.539l-2.037-0.633c-0.449-0.139-0.701-0.614-0.561-1.062 0.137-0.447 0.612-0.697 1.062-0.56l0.84 0.261c-3.317-8.802-8.598-13.075-14.146-15.899-0.312 1.123-1.225 2.034-2.442 2.277-0.211 0.042-0.422 0.062-0.629 0.062-1.488 0-2.815-1.047-3.121-2.562l-0.539-2.692c-0.047-0.02-0.096-0.038-0.144-0.057l-0.879-0.348c-0.67-0.265-2.573-0.951-5.362-1.938l0.079 0.467c0.294 1.733-0.875 3.379-2.61 3.673-0.18 0.031-0.358 0.046-0.535 0.046-1.526 0-2.875-1.1-3.137-2.654l-0.67-3.947c-1.935-0.678-4.039-1.412-6.265-2.188l0.283 1.65c0.297 1.733-0.867 3.381-2.6 3.68-0.182 0.031-0.365 0.046-0.543 0.046-1.523 0-2.869-1.095-3.137-2.646l-0.881-5.121c-1.957-0.68-3.968-1.376-6.006-2.083l0.272 1.479c0.319 1.73-0.822 3.393-2.554 3.712-0.194 0.036-0.393 0.054-0.584 0.054-1.506 0-2.846-1.074-3.127-2.609l-0.93-5.032c-2.201-0.761-4.404-1.522-6.584-2.274l0.273 1.658c0.285 1.736-0.891 3.375-2.627 3.66-0.176 0.028-0.35 0.042-0.521 0.042-1.532 0-2.885-1.108-3.141-2.67l-0.83-5.05c-2.114-0.729-4.173-1.438-6.147-2.118l0.326 1.764c0.318 1.73-0.824 3.392-2.555 3.711-0.195 0.036-0.391 0.053-0.582 0.053-1.508 0-2.848-1.073-3.129-2.608l-0.979-5.294c-2.515-0.861-4.777-1.635-6.691-2.287-0.363-0.021-0.73-0.102-1.084-0.257l-1.154-0.503c-0.545-0.184-1.044-0.353-1.497-0.505l1.931 2.922c0.969 1.469 0.564 3.444-0.903 4.414-0.54 0.357-1.15 0.527-1.753 0.527-1.034 0-2.047-0.503-2.661-1.431l-6.098-9.236C121.831 99.403 118.483 101.74 112.673 105.81zM194.074 162.852l-0.107 0.257c13.455-0.875 25.982-2.121 36.25-3.886-2.786-9.147-5.717-10.111-12.03-12.181-3.293-1.078-8.709-2.797-15.371-4.888l-0.479 1.13c-0.135 0.324-0.448 0.52-0.78 0.52-0.111 0-0.224-0.021-0.332-0.066-0.433-0.183-0.634-0.681-0.449-1.113l0.412-0.979c-0.229-0.073-0.465-0.146-0.699-0.22 0 0-6.966-2.182-16.817-5.271l-20.812 28.339c2.973-0.086 5.947-0.164 8.914-0.273l15.325-0.699c1.67-0.093 3.329-0.188 4.975-0.291l0.438-1.038c0.182-0.432 0.684-0.635 1.113-0.452C194.054 161.919 194.255 162.419 194.074 162.852zM151.032 125.916l-28.864 39.189 7.119-0.027c2.783-0.019 5.631-0.046 8.505-0.078l25.81-35.139C159.406 128.545 155.157 127.211 151.032 125.916zM97.314 107.858c0.356-0.21 0.715-0.423 1.081-0.64 1.51-0.897 3.072-1.824 4.779-2.809 0.078-0.045 0.151-0.09 0.228-0.135-0.075 0.021-0.152 0.038-0.229 0.038-0.253 0-0.504-0.113-0.671-0.329-0.64-0.822-1.138-1.688-1.481-2.574-0.169-0.438 0.047-0.931 0.485-1.1s0.93 0.048 1.099 0.485c0.284 0.732 0.7 1.455 1.239 2.147 0.263 0.338 0.227 0.812-0.065 1.111 1.976-1.177 3.633-2.335 5.237-3.459 3.818-2.675 7.069-4.742 11.432-5.563l-21.926-9.564C95.796 89.628 90.605 99.668 97.314 107.858zM17.294 126.705c8.017 0.766 11.236 0.892 19.275 0.892 2.865 0 5.217-0.411 7.169-1.039-5.332-0.981-9.925-3.06-13.729-6.232-5.188-4.323-7.426-9.465-8.45-12.028-0.941 2.422-2.261 7.375-4.046 17.154C17.436 125.871 17.366 126.288 17.294 126.705zM16.302 133.947c1.851 0.331 3.751 0.684 5.69 1.06 11.466 2.22 20.869 4.39 28.7 6.647 0.506-0.091 1.009-0.177 1.523-0.271 0.463-0.081 0.911 0.223 0.995 0.683 0.021 0.112 0.018 0.225-0.004 0.331 6.221 1.892 11.394 3.854 15.79 5.966 7.283 3.497 11.766 7.473 14.692 12.215l1.004 1.771c0.46 0.886 0.876 1.797 1.253 2.736 0.167 0 0.334 0 0.501 0 3.069 0 6.564 0.011 10.409 0.021 0.161 0 0.328 0.001 0.49 0.001l33.822-45.436c-6.378-2.008-10.874-3.43-11.926-3.777-0.917-0.303-1.795-0.607-2.645-0.913-0.288 0.217-0.625 0.47-1.029 0.766-0.151 0.111-0.327 0.165-0.501 0.165-0.262 0-0.52-0.12-0.686-0.348-0.277-0.378-0.195-0.91 0.183-1.187 0.049-0.036 0.091-0.067 0.138-0.102-3.463-1.339-6.315-2.722-8.629-4.18-1.562 0.904-3.018 1.768-4.425 2.602-11.333 6.726-18.821 11.169-43.94 14.125-0.937 0.108-1.853 0.187-2.758 0.251-4.871 4.634-10.886 6.896-18.38 6.896-8.399 0-11.685-0.133-20.164-0.948C16.37 133.331 16.334 133.64 16.302 133.947zM269.669 153.294c-6.689 4.67-18.58 8.554-36.066 11.799-31.186 5.785-84.732 6.412-121.371 6.412-5.569 0-10.745-0.016-15.396-0.027-3.838-0.012-7.327-0.021-10.391-0.021-31.018 0-61.173-2.422-67.578-3.483l-2.321-0.19v9.823c0 6.269 0.457 7.37 3.259 7.853 5.925 1.021 35.743 3.414 66.64 3.414 3.069 0 6.564 0.012 10.409 0.021 35.035 0.1 100.247 0.279 135.585-6.277 23.285-4.322 36.602-9.947 37.5-15.846l0.043-0.275C270.675 162.352 270.589 157.524 269.669 153.294zM178.834 153.527c-0.66-0.486-1.596-0.346-2.082 0.314-0.484 0.666-0.343 1.596 0.318 2.082 0.229 0.168 0.484 0.26 0.746 0.283 0.502 0.045 1.014-0.162 1.333-0.6C179.636 154.947 179.493 154.011 178.834 153.527zM173.798 160.373c-0.661-0.49-1.59-0.35-2.081 0.316-0.487 0.658-0.343 1.592 0.321 2.076 0.223 0.17 0.483 0.26 0.745 0.285 0.501 0.045 1.01-0.166 1.331-0.6C174.599 161.789 174.46 160.859 173.798 160.373zM188.902 139.838c-0.66-0.485-1.591-0.342-2.079 0.317-0.487 0.666-0.345 1.595 0.316 2.08 0.229 0.171 0.489 0.261 0.747 0.284 0.504 0.045 1.012-0.164 1.331-0.601C189.703 141.258 189.566 140.33 188.902 139.838zM183.866 146.685c-0.662-0.486-1.591-0.344-2.077 0.316-0.484 0.66-0.344 1.59 0.317 2.08 0.225 0.166 0.485 0.256 0.748 0.279 0.497 0.045 1.013-0.164 1.333-0.596C184.672 148.099 184.531 147.171 183.866 146.685z" data-fill-palette-color="accent"></path></svg></g><g transform="matrix(1,0,0,1,144.36136,0)"><svg width="114.68851774279813" viewBox="0 -30.96 79.91 39.4" height="56.54063562395203" data-palette-color="#1f83cb"><g class="wordmark-text-0" data-fill-palette-color="primary"><path d="M28.92 7.08L28.92 7.08Q30 7.08 30.52 6.32L30.52 6.32Q30.76 6.32 30.76 6.52 30.76 6.72 30.56 7.12L30.56 7.12Q29.68 8.32 28.4 8.44L28.4 8.44Q26.4 8.44 24.34 6.3 22.28 4.16 20.66 1.12 19.04-1.92 17.64-4.98 16.24-8.04 15.12-10.18 14-12.32 13.36-12.32L13.36-12.32Q13.08-12.6 13.76-13.52L13.76-13.52Q24.6-30.92 28.88-30.92L28.88-30.92Q29.44-30.92 29.76-30.42 30.08-29.92 30.16-28.96L30.16-28.96Q28.44-28.96 26-26.64L26-26.64Q24.72-25.36 23.74-24.3 22.76-23.24 21.12-21.12L21.12-21.12Q19.04-18.44 15.92-14.24L15.92-14.24Q17.52-13.16 21.92-2.84L21.92-2.84Q23.52 0.92 25.48 4 27.44 7.08 28.92 7.08ZM14.68-29.6L14.68-29.6Q15.32-29.6 15.32-28.96L15.32-28.96Q12.2-21.76 10.16-8.84L10.16-8.84Q9.36-3.6 9.36-1.28L9.36-1.28Q9.36-0.76 8.8-0.76L8.8-0.76Q7.6-0.76 7.6-3.96L7.6-3.96Q7.6-11.68 9.34-18.96 11.08-26.24 13.2-28.68L13.2-28.68Q7.48-27.88 3.92-24.64L3.92-24.64Q1.88-22.84 1.88-20.72L1.88-20.72Q1.88-19.68 2.68-19.68L2.68-19.68Q2.52-19.12 1.8-19.12 1.08-19.12 0.54-19.68 0-20.24 0-21.24L0-21.24Q0-23.6 2.86-25.62 5.72-27.64 9.04-28.62 12.36-29.6 14.68-29.6ZM32.28 5.84L32.28 5.84Q29.96 5.84 28.86 3.4 27.76 0.96 27.76-3.92 27.76-8.8 29.2-15.48 30.64-22.16 32.58-26.56 34.52-30.96 35.96-30.96L35.96-30.96Q36.64-30.96 36.64-30.16L36.64-30.16Q35.8-28.24 34.52-24.38 33.24-20.52 32.38-17.24 31.52-13.96 30.82-9.56 30.12-5.16 30.12-2.02 30.12 1.12 30.74 2.82 31.36 4.52 32.44 4.52L32.44 4.52Q33.36 4.52 34.2 3.66 35.04 2.8 35.4 1.96L35.4 1.96Q35.6 1.52 36.12 1.72L36.12 1.72Q36.32 1.8 36.22 2.06 36.12 2.32 35.9 2.72 35.68 3.12 35.12 3.96L35.12 3.96Q33.92 5.84 32.28 5.84ZM37.96-3.4L37.96-3.4Q37.96-9.32 39.18-13.96 40.4-18.6 42.28-18.6L42.28-18.6Q43.2-18.6 43.2-17.6L43.2-17.6Q42.8-16.56 42.2-14.84 41.6-13.12 40.62-8.62 39.64-4.12 39.64-0.6L39.64-0.6Q39.64-0.04 39.04-0.04L39.04-0.04Q37.96-0.04 37.96-3.4ZM43.8-23.04L43.32-22.36Q42.48-22.36 42.48-23.96L42.48-23.96Q42.48-24.92 43-25.98 43.52-27.04 44.48-27.04L44.48-27.04Q45.28-27.04 45.28-26.12L45.28-26.12Q45.28-25.2 43.8-23.04L43.8-23.04ZM48.35-6.48L48.71-6.48Q53.87-19.24 58.75-19.24L58.75-19.24Q60.79-19.24 60.79-17.28L60.79-17.28Q60.51-16.36 60.07-14.86 59.63-13.36 58.89-9.48 58.15-5.6 58.15-2.68L58.15-2.68Q58.15 1.56 59.39 1.56L59.39 1.56Q59.87 1.56 60.31 1.18 60.75 0.8 60.91 0.8L60.91 0.8Q61.47 0.8 60.91 1.68L60.91 1.68Q60.71 1.96 60.17 2.44 59.63 2.92 59.07 2.92L59.07 2.92Q57.55 2.92 56.69 0.74 55.83-1.44 55.83-4.92L55.83-4.92Q55.83-10.44 57.55-17.04L57.55-17.04Q57.71-17.56 57.23-17.56L57.23-17.56Q56.91-17.56 56.51-17.24L56.51-17.24Q54.59-15.56 52.47-11.68 50.35-7.8 49.15-4.74 47.95-1.68 47.95-1.18 47.95-0.68 47.39-0.68L47.39-0.68Q46.11-0.68 46.11-3.84L46.11-3.84Q46.11-9.8 47.33-14.64 48.55-19.48 50.27-19.48L50.27-19.48Q50.99-19.48 50.99-18.6L50.99-18.6Q49.15-12.64 48.35-6.48L48.35-6.48ZM79.91-26.96L79.91-26.96Q79.91-23.76 78.05-21.2 76.19-18.64 72.79-15.68L72.79-15.68Q73.15-15.24 74.17-14.08 75.19-12.92 75.69-12.28 76.19-11.64 76.83-10.6L76.83-10.6Q78.11-8.6 78.11-6.48L78.11-6.48Q78.11-2.92 75.59-0.9 73.07 1.12 69.87 1.12 66.67 1.12 64.53-0.4 62.39-1.92 62.39-4.68L62.39-4.68Q62.39-7.96 65.59-11.16L65.59-11.16Q67.07-12.64 69.79-14.96L69.79-14.96Q67.91-17.52 67.91-20.08 67.91-22.64 69.65-24.36 71.39-26.08 74.15-26.08L74.15-26.08Q74.95-26.08 75.41-25.8 75.87-25.52 75.95-25.2L75.95-25.2 76.03-24.92Q75.59-25.08 74.47-25.08L74.47-25.08Q72.39-25.08 71.33-23.88 70.27-22.68 70.27-20.86 70.27-19.04 71.91-16.8L71.91-16.8Q75.07-19.68 76.83-22.44 78.59-25.2 78.59-28.76L78.59-28.76Q79.15-28.64 79.53-28.14 79.91-27.64 79.91-26.96ZM75.63-5.48L75.63-5.48Q75.63-6.68 75.07-7.96 74.51-9.24 74.07-9.86 73.63-10.48 72.29-12 70.95-13.52 70.67-13.84L70.67-13.84Q67.63-11.2 66.03-9.04 64.43-6.88 64.43-4.6 64.43-2.32 65.99-1.14 67.55 0.04 69.83 0.04 72.11 0.04 73.87-1.44 75.63-2.92 75.63-5.48Z" fill="#1f83cb" data-fill-palette-color="primary"></path></g></svg></g></svg></g></svg></g></svg></g></svg></g></svg></g><defs></defs></svg><rect width="259.0498777427981" height="56.54063562395203" fill="none" stroke="none" visibility="hidden"></rect></g></svg></g></svg>