<!DOCTYPE svg PUBLIC "-//W3C//DTD SVG 1.1//EN" "http://www.w3.org/Graphics/SVG/1.1/DTD/svg11.dtd">
<!-- Uploaded to: SVG Repo, www.svgrepo.com, Transformed by: SVG Repo Mixer Tools -->
<svg version="1.1" id="Layer_1" xmlns="http://www.w3.org/2000/svg" xmlns:xlink="http://www.w3.org/1999/xlink" viewBox="0 0 511.989 511.989" xml:space="preserve" width="800px" height="800px" fill="#000000">
<g id="SVGRepo_bgCarrier" stroke-width="0"/>
<g id="SVGRepo_tracerCarrier" stroke-linecap="round" stroke-linejoin="round"/>
<g id="SVGRepo_iconCarrier"> <path style="fill:#E6E9ED;" d="M469.335,251.81H42.679c-11.765,0-21.335,9.578-21.335,21.343v159.992 c0,10.469,7.484,20.844,17.414,24.156l11.765,3.922c3.164,1.062,6.945,1.609,10.929,1.609c6.164,0,12.304-1.312,16.867-3.594 l2.25-1.125c0.781-0.375,2.492-0.828,4.773-0.828s3.992,0.453,4.773,0.828l2.25,1.125c5.117,2.562,10.601,3.109,14.312,3.109 c3.703,0,9.194-0.547,14.312-3.109l2.25-1.125c0.773-0.375,2.492-0.828,4.766-0.828c2.281,0,4,0.453,4.773,0.828l2.25,1.125 c5.117,2.562,10.609,3.109,14.312,3.109s9.195-0.547,14.312-3.109l2.25-1.125c0.781-0.375,2.492-0.828,4.773-0.828 c2.273,0,3.992,0.453,4.766,0.828l2.258,1.125c5.109,2.562,10.601,3.109,14.304,3.109c3.711,0,9.203-0.547,14.312-3.109l2.25-1.125 c0.781-0.375,2.492-0.828,4.773-0.828c2.281,0,3.992,0.453,4.773,0.828l2.25,1.125c5.117,2.562,10.601,3.109,14.312,3.109 c3.703,0,9.195-0.547,14.304-3.109l2.258-1.125c0.773-0.375,2.492-0.828,4.766-0.828c2.281,0,4,0.453,4.773,0.828l2.25,1.125 c5.117,2.562,10.602,3.109,14.32,3.109c3.687,0,9.187-0.547,14.312-3.109l2.25-1.125c0.781-0.375,2.483-0.828,4.765-0.828 c2.266,0,3.984,0.453,4.766,0.828l2.25,1.125c5.125,2.562,10.608,3.109,14.312,3.109c3.719,0,9.203-0.547,14.312-3.109l2.25-1.125 c0.781-0.375,2.5-0.828,4.781-0.828s3.984,0.453,4.765,0.828l2.25,1.125c5.109,2.562,10.609,3.109,14.312,3.109 s9.203-0.547,14.312-3.109l2.25-1.125c0.766-0.375,2.484-0.828,4.766-0.828s4,0.453,4.781,0.828l2.25,1.125 c5.109,2.562,10.594,3.109,14.312,3.109c3.703,0,9.187-0.547,14.312-3.109l2.25-1.125c0.781-0.375,2.484-0.828,4.766-0.828 c2.279,0,3.982,0.453,4.764,0.828l2.25,1.125c4.562,2.281,10.719,3.594,16.875,3.594c3.984,0,7.766-0.547,10.938-1.609l11.75-3.922 c9.937-3.312,17.421-13.688,17.421-24.156V273.153C490.662,261.388,481.084,251.81,469.335,251.81z"/> <g> <path style="fill:#CCD1D9;" d="M85.341,371.368c-5.89,0-10.664,4.781-10.664,10.672v78.715c1.297-0.438,2.516-0.938,3.641-1.516 l2.25-1.125c0.781-0.375,2.492-0.828,4.773-0.828s3.992,0.453,4.773,0.828l2.25,1.125c1.203,0.609,2.43,1.094,3.641,1.5V382.04 C96.005,376.149,91.232,371.368,85.341,371.368z"/> <path style="fill:#CCD1D9;" d="M287.998,460.739v-38.264c0-5.891-4.781-10.672-10.655-10.672c-5.898,0-10.672,4.781-10.672,10.672 v38.264c3.953,1.281,7.828,1.609,10.672,1.609C280.17,462.349,284.045,462.02,287.998,460.739z"/> <path style="fill:#CCD1D9;" d="M383.994,347.806c-5.891,0-10.656,4.781-10.656,10.672V460.74c1.219-0.406,2.438-0.891,3.641-1.5 l2.25-1.125c0.766-0.375,2.484-0.828,4.766-0.828s4,0.453,4.781,0.828l2.25,1.125c1.188,0.609,2.422,1.094,3.641,1.5V358.477 C394.666,352.587,389.9,347.806,383.994,347.806z"/> <path style="fill:#CCD1D9;" d="M149.339,390.477c-5.89,0-10.664,4.779-10.664,10.67v59.592c3.953,1.281,7.828,1.609,10.664,1.609 s6.711-0.328,10.664-1.609v-59.592C160.003,395.257,155.229,390.477,149.339,390.477z"/> </g> <path style="fill:#1f83cb;" d="M437.335,49.162h-298.66c-52.936,0-95.996,43.061-95.996,95.996v42.655h85.325v-42.655 c0-5.891,4.789-10.672,10.671-10.672h298.66c23.531,0,42.655-19.139,42.655-42.669C479.99,68.301,460.866,49.162,437.335,49.162z"/> <rect x="170.679" y="49.157" style="fill:#656D78;" width="213.32" height="85.32"/> <g> <path style="fill:#434A54;" d="M341.34,59.818c5.874,0,10.655-4.766,10.655-10.656h-21.327 C330.668,55.052,335.434,59.818,341.34,59.818z"/> <path style="fill:#434A54;" d="M298.669,59.818c5.891,0,10.672-4.766,10.672-10.656h-21.343 C287.998,55.052,292.779,59.818,298.669,59.818z"/> <path style="fill:#434A54;" d="M256.007,59.818c5.891,0,10.664-4.766,10.664-10.656h-21.335 C245.335,55.052,250.116,59.818,256.007,59.818z"/> <path style="fill:#434A54;" d="M213.345,59.818c5.89,0,10.664-4.766,10.664-10.656h-21.335 C202.673,55.052,207.454,59.818,213.345,59.818z"/> </g> <path style="fill:#1f83cb;" d="M511.989,273.153H0.009v-85.341c0-11.75,9.57-21.327,21.335-21.327h469.318 c11.765,0,21.327,9.577,21.327,21.327V273.153z"/> <rect y="198.487" style="fill:#1f83cb;" width="511.98" height="21.328"/> </g>
</svg>