<!DOCTYPE svg PUBLIC "-//W3C//DTD SVG 1.1//EN" "http://www.w3.org/Graphics/SVG/1.1/DTD/svg11.dtd">
<!-- Uploaded to: SVG Repo, www.svgrepo.com, Transformed by: SVG Repo Mixer Tools -->
<svg height="800px" width="800px" version="1.1" id="Layer_1" xmlns="http://www.w3.org/2000/svg" xmlns:xlink="http://www.w3.org/1999/xlink" viewBox="0 0 503.82 503.82" xml:space="preserve" fill="#000000">
<g id="SVGRepo_bgCarrier" stroke-width="0"/>
<g id="SVGRepo_tracerCarrier" stroke-linecap="round" stroke-linejoin="round"/>
<g id="SVGRepo_iconCarrier"> <g transform="translate(1 1)"> <path style="fill:#1f83cb;" d="M165.753,367.817c5.12,11.093,8.533,23.04,8.533,35.84c0,36.693-25.6,67.413-59.733,75.093 c-5.12,0.853-110.933,18.773-110.933,18.773s17.92-104.96,18.773-110.933c7.68-34.133,38.4-59.733,75.093-59.733 c9.387,0,22.187,2.56,34.987,8.533C145.274,341.363,157.22,351.603,165.753,367.817L165.753,367.817"/> <path style="fill:#ffffff;" d="M498.553,19.657c0,7.68-8.533,17.067-8.533,17.067s-85.333,110.933-187.733,213.333 c-29.867,29.867-56.32,53.76-76.8,71.68c0,0-5.12-16.213-17.067-29.013c-11.947-11.947-28.16-17.067-28.16-17.067l0,0 c17.92-20.48,40.96-46.933,70.827-76.8C353.487,96.457,464.42,11.123,464.42,11.123s9.387-8.533,17.067-8.533 C490.874,2.59,498.553,10.27,498.553,19.657"/> <path style="fill:#ebebea;" d="M180.26,275.657c0,0,16.213,5.12,28.16,17.067c11.947,12.8,17.067,29.013,17.067,29.013 c-36.693,31.573-57.173,45.227-59.733,46.08l0,0c-8.533-16.213-21.333-26.453-33.28-32.427v-1.707l17.92-22.187 C158.074,302.11,167.46,290.163,180.26,275.657L180.26,275.657z"/> </g> <path style="fill:#51565F;" d="M4.62,502.79c-0.853,0-2.56-0.853-3.413-0.853c-0.853-0.853-1.707-2.56-0.853-3.413 c0.853-4.267,17.92-104.96,18.773-110.933c8.533-36.693,41.813-63.147,79.36-63.147c19.627,0,38.4,6.827,52.907,19.627 c1.707,1.707,1.707,4.267,0.853,5.973c-1.707,1.707-4.267,1.707-5.973,0.853c-12.8-11.093-29.867-17.92-47.787-17.92 c-34.133,0-63.147,23.893-70.827,57.173c-0.853,4.267-11.947,66.56-17.92,104.107c37.547-5.973,100.693-17.067,104.107-17.92 c33.28-7.68,57.173-36.693,57.173-70.827c0-11.947-2.56-23.04-6.827-32.427c0,0,0,0-0.853-0.853c-0.853-1.707-0.853-2.56,0-4.267 c0-0.853,0.853-1.707,1.707-1.707c0,0,0,0,0.853,0c4.267-2.56,23.893-16.213,56.32-43.52c-1.707-5.12-6.827-16.213-15.36-24.747 c-8.533-8.533-19.627-13.653-23.893-15.36c-11.093,13.653-20.48,24.747-27.307,33.28c-1.707,1.707-4.267,2.56-5.973,0.853 s-2.56-4.267-0.853-5.973c17.92-23.893,50.347-62.293,100.693-112.64C351.073,96.604,462.007,11.27,462.86,10.417 c0.853-0.853,11.093-9.387,19.627-9.387c11.947,0,21.333,9.387,21.333,21.333c0,8.533-8.533,18.773-9.387,19.627 c-0.853,0.853-86.187,111.787-187.733,213.333c-72.533,72.533-121.173,107.52-133.973,116.053 c4.267,10.24,6.827,22.187,6.827,34.133c0,37.547-26.453,70.827-63.147,79.36C110.433,484.87,9.74,501.937,4.62,502.79 C5.474,502.79,4.62,502.79,4.62,502.79z M188.087,274.95c5.973,2.56,16.213,7.68,24.747,16.213 c8.533,8.533,13.653,17.92,16.213,24.747c19.627-17.067,44.373-39.253,71.68-67.413C401.42,147.803,487.607,36.87,488.46,35.163 c3.413-3.413,7.68-10.24,7.68-14.507c0-6.827-5.973-12.8-12.8-12.8c-4.267,0-11.093,5.12-14.507,7.68 C467.127,16.39,357.047,101.723,255.5,203.27C227.34,230.577,205.153,254.47,188.087,274.95z M132.62,434.523 c-0.853,0-1.707,0-2.56-0.853c-1.707-1.707-2.56-4.267-0.853-5.973c5.12-6.827,7.68-14.507,7.68-23.04 c0-7.68-2.56-15.36-6.827-22.187c-1.707-1.707-0.853-4.267,0.853-5.973c1.707-1.707,4.267-0.853,5.973,0.853 c5.973,7.68,8.533,17.067,8.533,27.307c0,10.24-3.413,20.48-9.387,28.16C135.18,434.523,133.474,434.523,132.62,434.523z"/> </g>
</svg>